<svg width="32" height="32" viewBox="0 0 32 32" xmlns="http://www.w3.org/2000/svg">
  <!-- Background circle -->
  <circle cx="16" cy="16" r="15" fill="#DC2626" stroke="#B91C1C" stroke-width="2"/>
  
  <!-- Shrimp icon -->
  <path d="M12 8c-2 0-3 1-3 3s1 3 3 3c1 0 2-1 2-2s-1-2-2-2zm0 4c-1 0-1-1-1-1s0-1 1-1 1 1 1 1-1 1-1 1z" fill="#FFFFFF"/>
  <path d="M13 9c0-1-1-1-1-1s-1 0-1 1 1 1 1 1 1 0 1-1z" fill="#FFFFFF"/>
  
  <!-- Sombrero icon -->
  <path d="M8 12c0-2 2-4 4-4s4 2 4 4c0 1-1 2-2 2H10c-1 0-2-1-2-2z" fill="#FFFFFF"/>
  <path d="M6 14h20c1 0 2 1 2 2s-1 2-2 2H6c-1 0-2-1-2-2s1-2 2-2z" fill="#FFFFFF"/>
  
  <!-- Text "P" -->
  <text x="20" y="22" font-family="Arial, sans-serif" font-size="8" font-weight="bold" fill="#FFFFFF">P</text>
</svg>
